# xmcd
#
# Track frame offsets:
#	150
#	2717
#	12270
#	25530
#	33641
#	45848
#	56171
#	66262
#	74636
#	85878
#	103170
#	115860
#	132024
#	142777
#	154477
#	164411
#	180728
#	193372
#	203503
#	215381
#
# Disc length: 3191 seconds
#
# Revision: 0
# Processed by: cddbd v1.5.2PL0 Copyright (c) Steve Scherf et al.
# Submitted via: EasyCDDAExtractor 16.1.0.1
#
DISCID=180c7514
DTITLE=Chudinkové - Chudinkové 2
DYEAR=1994
DGENRE=Country
TTITLE0=Uvodni slovo
TTITLE1=Taková písnička 
TTITLE2=Blázni
TTITLE3=Slunce vychází 
TTITLE4=Vejdi 
TTITLE5=Živá vodka 
TTITLE6=Paroží 
TTITLE7=Nářek 
TTITLE8=Tichý koutek 
TTITLE9=Prcek 
TTITLE10=Faunovo letní odpoledne 
TTITLE11=Dary silnice 
TTITLE12=Pradědek 
TTITLE13=Pratrampské prakamenné prablues 
TTITLE14=Pacifik 
TTITLE15=Podširáček 
TTITLE16=Babí léto 
TTITLE17=Krabice vzpomínek 
TTITLE18=Životní moudrost 
TTITLE19=Bonus
EXTD=
EXTT0=
EXTT1=
EXTT2=
EXTT3=
EXTT4=
EXTT5=
EXTT6=
EXTT7=
EXTT8=
EXTT9=
EXTT10=
EXTT11=
EXTT12=
EXTT13=
EXTT14=
EXTT15=
EXTT16=
EXTT17=
EXTT18=
EXTT19=
PLAYORDER=
